<?xml version="1.0" standalone="no"?>
<!DOCTYPE svg PUBLIC "-//W3C//DTD SVG 20010904//EN"
 "http://www.w3.org/TR/2001/REC-SVG-20010904/DTD/svg10.dtd">
<svg version="1.0" xmlns="http://www.w3.org/2000/svg"
 width="552.000000pt" height="563.000000pt" viewBox="0 0 552.000000 563.000000"
 preserveAspectRatio="xMidYMid meet">

<g transform="translate(0.000000,563.000000) scale(0.100000,-0.100000)"
fill="#000000" stroke="none">
<path d="M4095 5326 c-6 -9 -277 -78 -715 -181 -388 -92 -709 -171 -715 -176
-5 -5 -55 -9 -112 -9 l-103 0 0 -182 0 -183 -30 -17 c-38 -22 -51 -55 -40
-102 10 -44 52 -109 85 -130 22 -15 25 -14 51 21 47 62 66 141 44 183 -5 10
-26 24 -45 30 l-35 12 0 99 c0 87 2 99 18 99 9 0 339 -39 732 -87 647 -79 717
-89 733 -108 14 -16 16 -33 12 -95 -2 -41 -8 -303 -11 -582 l-7 -508 -32 0
c-27 0 -39 7 -63 40 l-30 41 6 314 5 314 -34 5 c-19 3 -45 7 -59 8 l-25 3 4
173 3 172 -92 0 -93 0 7 -179 7 -180 -43 -3 -43 -3 0 -930 0 -930 25 0 24 0
-2 490 c-1 270 -5 655 -8 858 l-7 367 72 0 71 0 -2 -850 -3 -850 362 0 361 0
-5 63 c-3 39 -11 67 -21 75 -12 9 -73 12 -228 12 -117 0 -219 3 -228 6 -16 6
-21 39 -10 68 5 14 36 16 241 16 l234 0 -3 63 -3 62 -227 3 -228 2 0 42 0 41
168 -7 c92 -4 197 -9 235 -13 l67 -6 0 62 c0 40 -4 63 -12 66 -7 3 -112 8
-233 12 l-220 8 -3 29 -4 29 149 -7 c81 -3 187 -9 234 -12 l87 -6 -6 73 c-2
41 -5 75 -6 76 0 0 -98 4 -216 8 -118 4 -223 9 -232 11 -12 4 -18 15 -18 36
l0 30 236 -7 235 -7 -3 63 -3 64 -230 12 c-126 6 -231 12 -232 12 -2 1 -3 15
-3 32 0 30 1 30 43 25 23 -3 131 -8 240 -12 l198 -6 -3 49 -3 48 -50 5 -50 5
-7 405 c-4 223 -8 489 -10 593 l-3 187 118 0 c97 0 117 -3 117 -15 0 -17 93
-20 338 -8 122 5 142 8 142 22 0 9 -30 47 -68 84 -50 49 -75 67 -94 67 -27 0
-30 7 -41 90 -2 12 -21 16 -90 18 l-87 3 0 27 c0 22 -39 66 -205 231 -117 117
-205 212 -205 223 0 22 -50 25 -65 4z m1 -208 c-3 -89 -9 -164 -12 -167 -7 -7
-546 -4 -999 6 -234 5 -318 9 -290 16 22 5 319 76 660 157 341 81 626 149 634
149 12 1 13 -25 7 -161z m389 -211 c-10 -5 -15 -23 -15 -49 l0 -41 -57 6 c-32
3 -59 11 -61 17 -2 5 -16 10 -32 10 -23 0 -29 5 -33 30 -6 27 -10 30 -47 30
-38 0 -40 2 -40 30 0 19 -5 30 -14 30 -15 0 -26 87 -26 210 l0 75 170 -170
c130 -130 166 -171 155 -178z m-1960 3 c-38 -25 -45 -25 -45 0 0 16 7 20 38
20 l37 0 -30 -20z m165 -15 l55 -34 -55 -24 -55 -25 -55 25 c-57 25 -66 31
-59 37 6 6 103 55 109 55 3 0 30 -15 60 -34z m180 30 c0 -3 -21 -15 -46 -25
l-46 -20 -41 25 -42 25 88 0 c48 0 87 -2 87 -5z m140 -75 c0 -4 -17 -19 -38
-33 l-39 -25 -58 33 -59 33 60 30 59 30 37 -30 c21 -16 38 -33 38 -38z m110
66 c0 -2 -16 -14 -35 -26 l-35 -22 -30 22 c-16 12 -30 23 -30 26 0 2 29 4 65
4 36 0 65 -2 65 -4z m230 1 c0 -2 -17 -18 -39 -35 l-38 -31 -34 35 -33 34 72
0 c40 0 72 -1 72 -3z m190 -37 c-25 -22 -49 -40 -53 -40 -10 0 -41 34 -58 63
-9 16 -3 17 73 17 l83 -1 -45 -39z m-318 -23 l21 -29 -39 -33 -38 -32 -43 35
c-24 20 -43 39 -43 43 0 4 21 20 47 37 52 34 57 33 95 -21z m508 8 c-24 -25
-45 -45 -46 -45 -3 0 -54 80 -54 85 0 3 32 5 72 5 l72 0 -44 -45z m204 10
c-14 -19 -30 -35 -34 -35 -6 0 -15 15 -38 63 -2 4 19 7 48 7 l51 0 -27 -35z
m-484 -60 c0 -9 -73 -75 -83 -75 -3 0 -21 20 -40 43 l-36 44 47 36 47 37 32
-38 c18 -20 33 -41 33 -47z m399 41 l24 -44 -48 -56 c-26 -31 -51 -56 -55 -56
-8 0 -60 75 -60 87 0 9 102 113 110 113 3 0 16 -20 29 -44z m-230 2 c8 -13 20
-32 27 -44 13 -18 10 -24 -29 -62 l-43 -42 -36 49 -36 48 41 36 c50 43 58 44
76 15z m361 -18 c0 -27 -3 -30 -32 -30 l-32 0 29 30 c16 17 30 30 32 30 2 0 3
-13 3 -30z m-1454 -18 c-7 -7 -46 9 -46 18 0 5 11 4 25 -2 14 -6 23 -13 21
-16z m309 -13 l50 -30 -47 5 c-27 3 -69 9 -95 12 l-46 7 34 18 c45 24 46 24
104 -12z m256 -25 l34 -36 -50 7 c-27 3 -65 8 -84 11 l-34 5 39 24 c21 14 44
25 50 25 5 0 26 -16 45 -36z m239 -54 c0 -4 -24 -3 -52 1 -29 4 -61 8 -72 8
-14 1 -10 8 19 31 l38 31 34 -33 c18 -17 33 -35 33 -38z m184 9 l29 -41 -69 7
c-38 4 -71 9 -73 11 -6 6 61 63 74 63 6 0 23 -18 39 -40z m446 -83 c0 -10
-142 3 -155 15 -6 6 10 28 40 59 l49 50 33 -58 c18 -31 33 -61 33 -66z m-261
82 c8 -13 20 -33 28 -45 13 -19 13 -21 -4 -18 -10 2 -40 7 -67 10 l-48 7 33
34 c18 19 35 34 39 34 3 0 11 -10 19 -22z m437 -179 c-27 -22 -55 -19 -76 6
-11 13 -4 15 45 15 l58 0 -27 -21z m-87 -65 c-32 -34 -39 -30 -39 22 l0 45 31
-21 30 -22 -22 -24z m151 15 l0 -50 -36 27 -35 27 28 23 c15 13 31 23 36 24 4
0 7 -23 7 -51z m-64 -41 c16 -12 31 -23 34 -25 5 -4 -51 -52 -62 -53 -4 0 -24
10 -44 22 l-37 22 34 28 c40 34 39 34 75 6z m-92 -125 c-39 -31 -48 -29 -40 8
3 17 6 38 6 46 0 11 8 9 31 -8 l32 -22 -29 -24z m166 15 l0 -40 -32 21 c-42
26 -44 33 -11 53 36 21 43 16 43 -34z m-40 -57 c0 -4 -15 -22 -34 -40 l-34
-33 -33 31 -34 31 34 29 34 28 34 -19 c18 -11 33 -23 33 -27z m40 -98 l0 -77
-40 39 -40 39 37 38 c20 21 38 38 40 38 2 0 3 -35 3 -77z m-165 36 l36 -32
-32 -33 c-18 -19 -37 -34 -41 -34 -4 0 -8 29 -8 65 0 36 2 65 5 65 2 0 20 -14
40 -31z m100 -94 l40 -34 -45 -40 -45 -39 -38 36 -37 36 37 38 c20 21 40 38
43 38 3 0 23 -16 45 -35z m65 -137 l0 -83 -42 42 -42 43 39 40 c21 22 40 40
42 40 2 0 3 -37 3 -82z m-141 2 c1 -3 -15 -18 -34 -33 l-35 -28 0 62 0 61 34
-29 c19 -15 35 -30 35 -33z m109 -101 c2 -4 -13 -20 -33 -35 l-36 -27 -39 38
-40 39 32 33 31 32 41 -36 c23 -20 42 -40 44 -44z m-134 -116 c-44 -39 -59
-42 -50 -10 3 12 6 44 6 72 l0 49 41 -39 40 -40 -37 -32z m174 -16 l-3 -29
-40 36 -40 36 35 30 35 31 8 -38 c4 -21 7 -51 5 -66z m-60 -20 l43 -44 -40
-26 c-22 -15 -45 -27 -51 -27 -13 0 -103 60 -98 65 13 13 94 75 98 75 3 0 25
-20 48 -43z m-117 -94 c43 -28 43 -29 -13 -62 l-38 -23 0 56 c0 31 2 56 5 56
3 0 24 -12 46 -27z m179 -34 l0 -50 -31 18 c-51 30 -53 39 -17 62 18 11 36 21
41 21 4 0 7 -23 7 -51z m-66 -43 c33 -27 31 -34 -18 -60 -35 -19 -37 -19 -72
0 -20 10 -38 22 -40 26 -6 9 66 57 86 57 8 0 28 -10 44 -23z m63 -142 c-6 -6
-77 36 -77 44 0 4 17 17 38 29 l37 21 3 -45 c2 -25 1 -47 -1 -49z m-184 67
c35 -18 34 -27 -3 -46 -40 -21 -40 -20 -40 26 0 22 3 39 8 37 4 -2 19 -10 35
-17z m125 -73 l57 -33 -75 -3 c-41 -2 -90 0 -109 3 l-35 7 50 29 c27 16 50 29
52 29 1 0 28 -15 60 -32z"/>
<path d="M1580 4795 l0 -175 -25 0 c-25 0 -25 -1 -25 -87 0 -49 -3 -179 -7
-290 l-6 -203 -54 0 -53 0 0 365 0 364 -57 3 -58 3 -3 87 -3 86 -54 4 -55 3 0
-466 c0 -256 3 -750 7 -1097 l6 -632 231 6 c127 2 264 7 304 10 l72 6 0 104 0
104 -255 0 -255 0 0 65 0 65 253 2 252 3 0 100 0 100 -252 3 -253 2 0 64 0 63
83 6 c45 4 160 7 255 7 l172 0 0 75 0 75 -255 0 -255 0 0 76 0 75 255 -7 c150
-4 256 -3 256 2 1 5 4 117 8 249 l6 240 43 -1 c23 0 44 -3 46 -5 2 -2 8 -403
12 -891 l7 -888 26 6 c14 4 30 10 35 15 5 4 5 404 1 923 l-7 916 -60 0 -60 0
3 128 4 127 -62 3 -63 3 0 129 0 130 -40 0 -40 0 0 60 0 60 -40 0 -40 0 0
-175z"/>
<path d="M2690 4375 l0 -285 -110 0 -109 0 -3 -57 -3 -58 -37 -3 -38 -3 0
-100 0 -99 -30 0 -30 0 0 280 0 279 -57 3 -58 3 -3 103 -3 102 -49 0 -50 0 0
-1030 0 -1030 55 0 c51 0 55 -2 55 -24 0 -28 16 -36 71 -36 l39 0 0 600 0 600
30 0 c17 0 31 -1 31 -2 1 -2 6 -281 13 -620 6 -339 14 -619 16 -621 3 -2 206
-8 453 -12 l447 -7 0 61 0 61 -410 0 -410 0 0 48 0 49 203 6 c111 4 294 7 406
7 l203 0 -6 23 c-3 12 -6 37 -6 55 l0 32 -242 0 c-134 0 -314 3 -400 7 l-158
6 0 40 0 40 400 -6 400 -5 0 38 c0 76 32 70 -406 70 l-394 0 0 55 0 55 128 0
c70 0 252 3 405 7 l277 6 0 55 0 54 -407 -3 -408 -4 -3 58 -3 57 128 0 c70 0
253 3 406 7 l277 6 0 54 0 53 -399 0 -398 0 -7 38 c-12 77 -22 72 137 72 78 0
260 3 405 7 l262 6 0 59 0 59 -400 -7 -400 -7 0 36 0 37 58 1 c390 6 741 15
745 19 2 3 2 22 -1 43 l-4 38 -387 -1 -386 -1 -3 50 -3 51 203 2 c112 1 221 2
243 3 22 0 104 2 183 3 l142 2 0 56 c0 47 -3 57 -20 61 -18 5 -20 14 -20 114
l0 109 -30 0 c-29 0 -30 2 -30 45 0 38 -3 45 -20 45 -17 0 -20 -7 -20 -45 0
-45 0 -45 -36 -45 l-35 0 7 -117 7 -116 -33 6 c-18 4 -48 7 -66 7 l-34 0 -2
223 -3 222 -55 3 c-30 2 -58 9 -62 15 -4 7 -8 33 -8 60 0 40 -3 47 -20 47 -18
0 -20 7 -20 55 l0 55 -50 0 -50 0 0 -285z"/>
<path d="M813 3027 c-97 -99 -108 -123 -108 -228 0 -84 1 -88 39 -143 55 -81
131 -136 291 -215 356 -175 675 -278 1230 -396 562 -120 1426 -191 1900 -156
404 30 607 82 714 184 112 107 106 200 -22 325 -34 34 -72 69 -85 77 l-22 16
0 -88 c0 -102 -13 -132 -77 -176 -117 -81 -276 -101 -808 -102 -380 0 -411 1
-615 28 -118 15 -269 34 -335 43 -124 15 -621 103 -735 130 -161 37 -688 210
-885 291 -114 46 -321 152 -365 185 -46 36 -60 68 -59 138 0 36 4 85 9 110 4
25 7 46 6 47 -2 2 -34 -30 -73 -70z"/>
<path d="M806 2469 c16 -26 559 -272 749 -338 173 -61 677 -180 1021 -240 565
-99 900 -123 1439 -102 520 20 676 33 654 56 -3 3 -118 -3 -255 -12 -365 -24
-1068 -24 -1264 0 -463 57 -843 128 -1280 237 -308 77 -447 129 -840 314 -197
93 -239 109 -224 85z"/>
<path d="M123 1475 c-40 -17 -73 -69 -73 -113 0 -68 42 -113 153 -166 46 -22
57 -32 57 -52 0 -38 -53 -37 -87 2 -18 19 -32 24 -73 24 l-50 0 0 -70 0 -70
54 0 c30 0 56 4 58 10 2 6 21 3 47 -6 115 -39 230 53 200 160 -15 53 -43 80
-129 126 -68 35 -81 45 -78 63 5 33 50 35 76 3 17 -22 28 -26 71 -26 l52 0 -3
63 -3 62 -48 3 c-34 2 -49 -1 -53 -11 -5 -13 -9 -13 -32 -1 -34 18 -98 17
-139 -1z"/>
<path d="M613 1469 c-81 -40 -133 -121 -133 -207 0 -97 41 -167 123 -209 44
-23 65 -27 132 -27 88 0 144 21 193 72 57 62 79 172 48 246 -20 48 -75 107
-121 127 -59 27 -186 26 -242 -2z m157 -99 c13 -13 20 -35 21 -62 4 -128 -11
-178 -56 -178 -41 0 -55 34 -55 132 0 75 3 91 20 108 11 11 27 20 35 20 8 0
24 -9 35 -20z"/>
<path d="M1050 1435 c0 -48 2 -55 20 -55 19 0 20 -7 20 -120 0 -113 -1 -120
-20 -120 -18 0 -20 -7 -20 -55 l0 -55 220 0 220 0 0 90 0 90 -55 0 -55 0 0
-35 0 -35 -55 0 -55 0 0 120 c0 113 1 120 20 120 18 0 20 7 20 55 l0 55 -130
0 -130 0 0 -55z"/>
<path d="M1520 1435 c0 -40 4 -55 14 -55 11 0 14 -27 18 -123 4 -143 19 -180
83 -212 56 -28 167 -28 214 0 67 40 76 62 79 206 3 119 5 129 23 129 16 0 19
7 19 55 l0 55 -85 0 -85 0 0 -55 c0 -30 5 -55 10 -55 15 0 13 -223 -2 -238
-18 -18 -56 -14 -68 7 -13 26 -13 231 0 231 6 0 10 25 10 55 l0 55 -115 0
-115 0 0 -55z"/>
<path d="M2141 1468 c-136 -67 -161 -291 -42 -391 44 -37 96 -52 181 -51 91 0
148 26 184 82 46 70 44 77 -21 100 l-59 19 -16 -38 c-30 -71 -107 -79 -134
-14 -16 39 -19 122 -4 159 5 14 21 32 35 42 21 14 30 14 54 5 15 -7 34 -23 41
-37 12 -21 20 -24 67 -24 l53 0 0 85 0 85 -50 0 c-38 0 -50 -4 -50 -15 0 -18
-8 -18 -40 0 -40 23 -147 19 -199 -7z"/>
<path d="M2557 1483 c-4 -3 -7 -28 -7 -55 0 -41 3 -48 20 -48 19 0 20 -7 20
-120 0 -113 -1 -120 -20 -120 -18 0 -20 -7 -20 -55 l0 -55 130 0 130 0 0 55
c0 48 -2 55 -20 55 -19 0 -20 7 -20 120 0 113 1 120 20 120 18 0 20 7 20 55
l0 55 -123 0 c-68 0 -127 -3 -130 -7z"/>
<path d="M3010 1469 c-81 -37 -126 -98 -137 -187 -21 -184 184 -316 370 -238
183 76 186 344 5 426 -60 27 -177 27 -238 -1z m155 -99 c22 -25 31 -130 16
-187 -9 -32 -18 -44 -36 -49 -56 -14 -75 19 -75 127 0 89 19 128 61 129 9 0
24 -9 34 -20z"/>
<path d="M3447 1483 c-4 -3 -7 -28 -7 -55 0 -41 3 -48 20 -48 19 0 20 -7 20
-120 0 -113 -1 -120 -20 -120 -18 0 -20 -7 -20 -55 l0 -55 95 0 95 0 0 55 c0
48 -2 55 -20 55 -18 0 -20 7 -20 77 0 43 4 73 8 68 5 -6 49 -67 97 -137 l89
-128 73 0 73 0 0 180 c0 173 1 180 20 180 18 0 20 7 20 55 l0 55 -90 0 -90 0
0 -54 c0 -45 3 -54 20 -59 17 -4 20 -14 20 -61 0 -31 -4 -56 -8 -56 -5 0 -44
52 -87 115 l-79 115 -101 0 c-56 0 -105 -3 -108 -7z"/>
<path d="M4030 1435 c0 -42 3 -55 15 -55 13 0 15 -20 15 -120 0 -100 -2 -120
-15 -120 -12 0 -15 -13 -15 -55 l0 -55 215 0 215 0 0 70 0 70 -60 0 c-47 0
-60 -3 -60 -15 0 -11 -12 -15 -50 -15 l-50 0 0 34 c0 34 1 35 43 38 l42 3 0
45 0 45 -42 3 c-42 3 -43 4 -43 38 l0 34 50 0 c43 0 50 -3 50 -20 0 -18 7 -20
60 -20 l60 0 0 75 0 75 -215 0 -215 0 0 -55z"/>
<path d="M4589 1467 c-42 -28 -59 -60 -59 -112 0 -60 29 -94 122 -145 61 -33
83 -51 83 -65 0 -36 -78 -32 -90 5 -5 17 -15 20 -61 20 l-54 0 0 -70 0 -70 49
0 c27 0 51 5 53 11 3 8 19 6 53 -5 65 -23 117 -13 163 28 30 28 36 40 39 87 6
75 -17 108 -108 156 -96 51 -112 64 -104 86 10 25 52 21 79 -8 18 -20 33 -25
70 -25 l46 0 0 65 0 65 -45 0 c-31 0 -47 -5 -51 -15 -5 -13 -9 -13 -34 0 -44
23 -111 19 -151 -8z"/>
<path d="M5020 1435 c0 -39 4 -55 13 -55 8 0 39 -37 71 -82 44 -65 56 -91 56
-120 0 -27 -4 -38 -15 -38 -12 0 -15 -13 -15 -55 l0 -55 125 0 125 0 0 51 c0
42 -3 52 -20 56 -15 4 -20 14 -20 40 0 26 14 55 56 115 31 44 63 82 70 85 10
3 14 23 14 59 l0 54 -85 0 -85 0 0 -54 c0 -32 5 -56 11 -58 12 -4 -29 -88 -42
-88 -6 0 -49 74 -49 84 0 3 7 6 16 6 12 0 14 10 12 53 l-3 52 -117 3 -118 3 0
-56z"/>
<path d="M727 630 c-57 -15 -90 -34 -130 -79 -101 -112 -63 -297 76 -361 l37
-17 -40 -12 c-51 -15 -54 -22 -27 -58 17 -23 26 -28 42 -22 35 13 68 9 130
-16 33 -14 75 -28 93 -31 29 -6 33 -3 46 27 24 59 29 82 17 75 -13 -9 -129 13
-137 25 -3 5 4 9 16 9 34 0 93 29 129 63 118 113 84 311 -65 378 -50 23 -136
31 -187 19z m110 -127 c13 -20 18 -47 18 -103 0 -88 -19 -130 -60 -130 -40 0
-55 34 -55 130 0 61 4 92 16 108 21 31 59 28 81 -5z"/>
<path d="M2653 630 c-60 -13 -96 -34 -137 -82 -83 -97 -74 -233 21 -319 51
-46 101 -63 183 -63 147 1 250 97 250 234 0 94 -51 174 -133 210 -52 23 -129
32 -184 20z m104 -127 c13 -20 18 -47 18 -103 0 -88 -19 -130 -60 -130 -40 0
-55 34 -55 130 0 61 4 92 16 108 21 31 59 28 81 -5z"/>
<path d="M4424 629 c-73 -17 -108 -82 -81 -156 6 -17 3 -23 -15 -28 -36 -11
-86 -53 -103 -85 -33 -63 -4 -148 60 -179 42 -20 143 -18 200 4 45 16 49 17
60 1 10 -13 31 -16 109 -16 l96 0 0 55 0 55 -33 0 c-21 0 -41 8 -51 19 -17 19
-17 21 11 55 17 22 37 36 51 36 20 0 22 5 22 55 l0 55 -58 0 -58 0 -22 -45
c-12 -25 -25 -45 -30 -45 -13 0 -72 83 -72 102 0 10 10 20 25 24 22 5 25 12
25 49 0 40 -2 43 -31 49 -38 7 -52 7 -105 -5z m14 -305 c39 -50 40 -62 7 -70
-52 -13 -95 20 -95 71 0 20 40 59 49 49 4 -5 22 -28 39 -50z"/>
<path d="M30 576 c0 -45 3 -54 20 -59 19 -5 20 -14 20 -121 0 -109 -1 -116
-20 -116 -18 0 -20 -7 -20 -55 l0 -55 220 0 221 0 -3 72 -3 73 -57 3 c-53 3
-58 1 -58 -18 0 -18 -6 -20 -56 -20 l-55 0 3 38 c3 36 4 37 46 40 l42 3 0 45
0 44 -45 0 c-45 0 -45 0 -45 35 l0 35 55 0 c49 0 55 -2 55 -20 0 -19 5 -21 58
-18 l57 3 0 70 0 70 -217 3 -218 2 0 -54z"/>
<path d="M1090 576 c0 -44 3 -55 19 -59 18 -4 20 -16 23 -130 3 -108 6 -130
24 -154 50 -69 187 -91 271 -43 62 34 76 71 81 213 3 90 8 117 18 117 10 0 14
15 14 55 l0 55 -85 0 -85 0 0 -55 c0 -30 5 -55 10 -55 6 0 10 -45 10 -114 0
-87 -3 -116 -15 -126 -21 -17 -48 -9 -62 20 -15 30 -18 220 -3 220 6 0 10 25
10 55 l0 55 -115 0 -115 0 0 -54z"/>
<path d="M1590 575 c0 -48 2 -55 20 -55 19 0 20 -7 20 -120 0 -113 -1 -120
-20 -120 -18 0 -20 -7 -20 -55 l0 -55 130 0 130 0 0 55 c0 52 -1 55 -25 55
l-25 0 0 120 0 120 26 0 c24 0 25 2 22 53 l-3 52 -127 3 -128 3 0 -56z"/>
<path d="M1900 576 c0 -49 2 -56 20 -56 19 0 20 -7 20 -120 0 -113 -1 -120
-20 -120 -18 0 -20 -7 -20 -55 l0 -55 135 0 135 0 0 55 c0 52 -1 55 -25 55
-21 0 -25 5 -25 29 l0 29 88 7 c143 12 195 47 196 134 1 60 -23 97 -80 126
-34 17 -64 20 -231 23 l-193 4 0 -56z m301 -56 c11 -6 19 -21 19 -35 0 -28
-26 -45 -69 -45 -30 0 -31 1 -31 45 0 44 1 45 31 45 17 0 39 -5 50 -10z"/>
<path d="M3102 613 c-41 -20 -62 -59 -62 -115 0 -63 27 -96 122 -148 60 -33
83 -51 83 -65 0 -39 -73 -31 -95 10 -11 21 -20 25 -62 25 l-48 0 0 -75 0 -75
50 0 c38 0 50 4 50 15 0 14 3 14 30 0 42 -22 128 -19 168 5 63 38 79 135 34
197 -11 16 -58 48 -104 73 -61 33 -83 51 -83 65 0 32 49 32 79 1 18 -21 33
-26 70 -26 l46 0 0 65 0 65 -50 0 c-38 0 -50 -4 -50 -15 0 -14 -3 -14 -30 0
-38 20 -106 19 -148 -2z"/>
<path d="M3630 575 c0 -42 3 -55 15 -55 13 0 15 -20 15 -120 0 -100 -2 -120
-15 -120 -12 0 -15 -13 -15 -55 l0 -55 120 0 120 0 0 55 c0 42 -3 55 -15 55
-11 0 -15 11 -15 41 l0 40 53 -3 52 -3 3 -37 c2 -29 0 -38 -12 -38 -13 0 -16
-12 -16 -55 l0 -55 120 0 120 0 0 55 c0 48 -2 55 -20 55 -19 0 -20 7 -20 120
0 114 1 120 21 120 18 0 20 5 17 53 l-3 52 -117 3 -118 3 0 -55 c0 -39 4 -55
15 -60 9 -3 15 -18 15 -36 0 -30 0 -30 -55 -30 l-55 0 0 35 c0 24 5 35 15 35
12 0 15 13 15 55 l0 55 -120 0 -120 0 0 -55z"/>
<path d="M4807 623 c-4 -3 -7 -28 -7 -55 0 -41 3 -48 20 -48 19 0 20 -7 20
-120 0 -100 -2 -120 -15 -120 -12 0 -15 -13 -15 -55 l0 -55 85 0 85 0 0 55 c0
42 -3 55 -15 55 -12 0 -15 20 -15 117 0 64 2 114 4 112 2 -2 32 -80 66 -172
l64 -168 34 3 35 3 64 169 c35 94 66 172 68 175 3 2 5 -50 5 -117 0 -115 -1
-122 -20 -122 -18 0 -20 -7 -20 -55 l0 -55 120 0 120 0 0 55 c0 48 -2 55 -20
55 -19 0 -20 7 -20 116 0 107 1 116 20 121 17 5 20 14 20 59 l0 55 -137 -3
-137 -3 -31 -77 c-16 -42 -33 -80 -36 -83 -3 -3 -21 33 -38 80 l-33 85 -132 0
c-73 0 -136 -3 -139 -7z"/>
</g>
</svg>
